<?xml version="1.0" encoding="UTF-8" standalone="no"?>
<!DOCTYPE svg PUBLIC "-//W3C//DTD SVG 1.1//EN"
 "http://www.w3.org/Graphics/SVG/1.1/DTD/svg11.dtd">
<!-- Generated by graphviz version 2.26.3 (20100126.1600)
 -->
<!-- Title: G Pages: 1 -->
<svg width="778pt" height="1404pt"
 viewBox="0.00 0.00 778.00 1404.00" xmlns="http://www.w3.org/2000/svg" xmlns:xlink="http://www.w3.org/1999/xlink">
<g id="graph1" class="graph" transform="scale(1 1) rotate(0) translate(4 1400)">
<title>G</title>
<polygon fill="white" stroke="white" points="-4,5 -4,-1400 775,-1400 775,5 -4,5"/>
<g id="graph2" class="cluster"><title>cluster_Generic</title>
<polyline fill="none" stroke="gray" points="566,-8 746,-8 "/>
<path fill="none" stroke="gray" d="M746,-8C752,-8 758,-14 758,-20"/>
<polyline fill="none" stroke="gray" points="758,-20 758,-1092 "/>
<path fill="none" stroke="gray" d="M758,-1092C758,-1098 752,-1104 746,-1104"/>
<polyline fill="none" stroke="gray" points="746,-1104 566,-1104 "/>
<path fill="none" stroke="gray" d="M566,-1104C560,-1104 554,-1098 554,-1092"/>
<polyline fill="none" stroke="gray" points="554,-1092 554,-20 "/>
<path fill="none" stroke="gray" d="M554,-20C554,-14 560,-8 566,-8"/>
<text text-anchor="middle" x="656" y="-1090.1" font-family="Times Roman,serif" font-size="11.00" fill="gray">Generic</text>
</g>
<g id="graph3" class="cluster"><title>cluster_Generic\BackOfficeBundle</title>
<polyline fill="none" stroke="gray" points="574,-1000 738,-1000 "/>
<path fill="none" stroke="gray" d="M738,-1000C744,-1000 750,-1006 750,-1012"/>
<polyline fill="none" stroke="gray" points="750,-1012 750,-1062 "/>
<path fill="none" stroke="gray" d="M750,-1062C750,-1068 744,-1074 738,-1074"/>
<polyline fill="none" stroke="gray" points="738,-1074 574,-1074 "/>
<path fill="none" stroke="gray" d="M574,-1074C568,-1074 562,-1068 562,-1062"/>
<polyline fill="none" stroke="gray" points="562,-1062 562,-1012 "/>
<path fill="none" stroke="gray" d="M562,-1012C562,-1006 568,-1000 574,-1000"/>
<text text-anchor="middle" x="656" y="-1060.1" font-family="Times Roman,serif" font-size="11.00" fill="gray">BackOfficeBundle</text>
</g>
<g id="graph4" class="cluster"><title>cluster_Generic\CommentBundle</title>
<polyline fill="none" stroke="gray" points="584,-918 728,-918 "/>
<path fill="none" stroke="gray" d="M728,-918C734,-918 740,-924 740,-930"/>
<polyline fill="none" stroke="gray" points="740,-930 740,-980 "/>
<path fill="none" stroke="gray" d="M740,-980C740,-986 734,-992 728,-992"/>
<polyline fill="none" stroke="gray" points="728,-992 584,-992 "/>
<path fill="none" stroke="gray" d="M584,-992C578,-992 572,-986 572,-980"/>
<polyline fill="none" stroke="gray" points="572,-980 572,-930 "/>
<path fill="none" stroke="gray" d="M572,-930C572,-924 578,-918 584,-918"/>
<text text-anchor="middle" x="656" y="-978.1" font-family="Times Roman,serif" font-size="11.00" fill="gray">CommentBundle</text>
</g>
<g id="graph5" class="cluster"><title>cluster_Generic\EAVBundle</title>
<polyline fill="none" stroke="gray" points="597,-836 715,-836 "/>
<path fill="none" stroke="gray" d="M715,-836C721,-836 727,-842 727,-848"/>
<polyline fill="none" stroke="gray" points="727,-848 727,-898 "/>
<path fill="none" stroke="gray" d="M727,-898C727,-904 721,-910 715,-910"/>
<polyline fill="none" stroke="gray" points="715,-910 597,-910 "/>
<path fill="none" stroke="gray" d="M597,-910C591,-910 585,-904 585,-898"/>
<polyline fill="none" stroke="gray" points="585,-898 585,-848 "/>
<path fill="none" stroke="gray" d="M585,-848C585,-842 591,-836 597,-836"/>
<text text-anchor="middle" x="656" y="-896.1" font-family="Times Roman,serif" font-size="11.00" fill="gray">EAVBundle</text>
</g>
<g id="graph6" class="cluster"><title>cluster_Generic\FacebookBundle</title>
<polyline fill="none" stroke="gray" points="581,-754 731,-754 "/>
<path fill="none" stroke="gray" d="M731,-754C737,-754 743,-760 743,-766"/>
<polyline fill="none" stroke="gray" points="743,-766 743,-816 "/>
<path fill="none" stroke="gray" d="M743,-816C743,-822 737,-828 731,-828"/>
<polyline fill="none" stroke="gray" points="731,-828 581,-828 "/>
<path fill="none" stroke="gray" d="M581,-828C575,-828 569,-822 569,-816"/>
<polyline fill="none" stroke="gray" points="569,-816 569,-766 "/>
<path fill="none" stroke="gray" d="M569,-766C569,-760 575,-754 581,-754"/>
<text text-anchor="middle" x="656" y="-814.1" font-family="Times Roman,serif" font-size="11.00" fill="gray">FacebookBundle</text>
</g>
<g id="graph7" class="cluster"><title>cluster_Generic\ForumBundle</title>
<polyline fill="none" stroke="gray" points="591,-672 721,-672 "/>
<path fill="none" stroke="gray" d="M721,-672C727,-672 733,-678 733,-684"/>
<polyline fill="none" stroke="gray" points="733,-684 733,-734 "/>
<path fill="none" stroke="gray" d="M733,-734C733,-740 727,-746 721,-746"/>
<polyline fill="none" stroke="gray" points="721,-746 591,-746 "/>
<path fill="none" stroke="gray" d="M591,-746C585,-746 579,-740 579,-734"/>
<polyline fill="none" stroke="gray" points="579,-734 579,-684 "/>
<path fill="none" stroke="gray" d="M579,-684C579,-678 585,-672 591,-672"/>
<text text-anchor="middle" x="656" y="-732.1" font-family="Times Roman,serif" font-size="11.00" fill="gray">ForumBundle</text>
</g>
<g id="graph8" class="cluster"><title>cluster_Generic\MailBundle</title>
<polyline fill="none" stroke="gray" points="594,-590 718,-590 "/>
<path fill="none" stroke="gray" d="M718,-590C724,-590 730,-596 730,-602"/>
<polyline fill="none" stroke="gray" points="730,-602 730,-652 "/>
<path fill="none" stroke="gray" d="M730,-652C730,-658 724,-664 718,-664"/>
<polyline fill="none" stroke="gray" points="718,-664 594,-664 "/>
<path fill="none" stroke="gray" d="M594,-664C588,-664 582,-658 582,-652"/>
<polyline fill="none" stroke="gray" points="582,-652 582,-602 "/>
<path fill="none" stroke="gray" d="M582,-602C582,-596 588,-590 594,-590"/>
<text text-anchor="middle" x="656" y="-650.1" font-family="Times Roman,serif" font-size="11.00" fill="gray">MailBundle</text>
</g>
<g id="graph9" class="cluster"><title>cluster_Generic\NewsletterBundle</title>
<polyline fill="none" stroke="gray" points="574,-508 738,-508 "/>
<path fill="none" stroke="gray" d="M738,-508C744,-508 750,-514 750,-520"/>
<polyline fill="none" stroke="gray" points="750,-520 750,-570 "/>
<path fill="none" stroke="gray" d="M750,-570C750,-576 744,-582 738,-582"/>
<polyline fill="none" stroke="gray" points="738,-582 574,-582 "/>
<path fill="none" stroke="gray" d="M574,-582C568,-582 562,-576 562,-570"/>
<polyline fill="none" stroke="gray" points="562,-570 562,-520 "/>
<path fill="none" stroke="gray" d="M562,-520C562,-514 568,-508 574,-508"/>
<text text-anchor="middle" x="656" y="-568.1" font-family="Times Roman,serif" font-size="11.00" fill="gray">NewsletterBundle</text>
</g>
<g id="graph10" class="cluster"><title>cluster_Generic\PaginatorBundle</title>
<polyline fill="none" stroke="gray" points="577,-426 735,-426 "/>
<path fill="none" stroke="gray" d="M735,-426C741,-426 747,-432 747,-438"/>
<polyline fill="none" stroke="gray" points="747,-438 747,-488 "/>
<path fill="none" stroke="gray" d="M747,-488C747,-494 741,-500 735,-500"/>
<polyline fill="none" stroke="gray" points="735,-500 577,-500 "/>
<path fill="none" stroke="gray" d="M577,-500C571,-500 565,-494 565,-488"/>
<polyline fill="none" stroke="gray" points="565,-488 565,-438 "/>
<path fill="none" stroke="gray" d="M565,-438C565,-432 571,-426 577,-426"/>
<text text-anchor="middle" x="656" y="-486.1" font-family="Times Roman,serif" font-size="11.00" fill="gray">PaginatorBundle</text>
</g>
<g id="graph11" class="cluster"><title>cluster_Generic\SearchBundle</title>
<polyline fill="none" stroke="gray" points="587,-344 725,-344 "/>
<path fill="none" stroke="gray" d="M725,-344C731,-344 737,-350 737,-356"/>
<polyline fill="none" stroke="gray" points="737,-356 737,-406 "/>
<path fill="none" stroke="gray" d="M737,-406C737,-412 731,-418 725,-418"/>
<polyline fill="none" stroke="gray" points="725,-418 587,-418 "/>
<path fill="none" stroke="gray" d="M587,-418C581,-418 575,-412 575,-406"/>
<polyline fill="none" stroke="gray" points="575,-406 575,-356 "/>
<path fill="none" stroke="gray" d="M575,-356C575,-350 581,-344 587,-344"/>
<text text-anchor="middle" x="656" y="-404.1" font-family="Times Roman,serif" font-size="11.00" fill="gray">SearchBundle</text>
</g>
<g id="graph12" class="cluster"><title>cluster_Generic\StyleBundle</title>
<polyline fill="none" stroke="gray" points="591,-262 721,-262 "/>
<path fill="none" stroke="gray" d="M721,-262C727,-262 733,-268 733,-274"/>
<polyline fill="none" stroke="gray" points="733,-274 733,-324 "/>
<path fill="none" stroke="gray" d="M733,-324C733,-330 727,-336 721,-336"/>
<polyline fill="none" stroke="gray" points="721,-336 591,-336 "/>
<path fill="none" stroke="gray" d="M591,-336C585,-336 579,-330 579,-324"/>
<polyline fill="none" stroke="gray" points="579,-324 579,-274 "/>
<path fill="none" stroke="gray" d="M579,-274C579,-268 585,-262 591,-262"/>
<text text-anchor="middle" x="656" y="-322.1" font-family="Times Roman,serif" font-size="11.00" fill="gray">StyleBundle</text>
</g>
<g id="graph13" class="cluster"><title>cluster_Generic\TwitterBundle</title>
<polyline fill="none" stroke="gray" points="584,-180 728,-180 "/>
<path fill="none" stroke="gray" d="M728,-180C734,-180 740,-186 740,-192"/>
<polyline fill="none" stroke="gray" points="740,-192 740,-242 "/>
<path fill="none" stroke="gray" d="M740,-242C740,-248 734,-254 728,-254"/>
<polyline fill="none" stroke="gray" points="728,-254 584,-254 "/>
<path fill="none" stroke="gray" d="M584,-254C578,-254 572,-248 572,-242"/>
<polyline fill="none" stroke="gray" points="572,-242 572,-192 "/>
<path fill="none" stroke="gray" d="M572,-192C572,-186 578,-180 584,-180"/>
<text text-anchor="middle" x="656" y="-240.1" font-family="Times Roman,serif" font-size="11.00" fill="gray">TwitterBundle</text>
</g>
<g id="graph14" class="cluster"><title>cluster_Generic\UserBundle</title>
<polyline fill="none" stroke="gray" points="594,-16 718,-16 "/>
<path fill="none" stroke="gray" d="M718,-16C724,-16 730,-22 730,-28"/>
<polyline fill="none" stroke="gray" points="730,-28 730,-160 "/>
<path fill="none" stroke="gray" d="M730,-160C730,-166 724,-172 718,-172"/>
<polyline fill="none" stroke="gray" points="718,-172 594,-172 "/>
<path fill="none" stroke="gray" d="M594,-172C588,-172 582,-166 582,-160"/>
<polyline fill="none" stroke="gray" points="582,-160 582,-28 "/>
<path fill="none" stroke="gray" d="M582,-28C582,-22 588,-16 594,-16"/>
<text text-anchor="middle" x="656" y="-158.1" font-family="Times Roman,serif" font-size="11.00" fill="gray">UserBundle</text>
</g>
<g id="graph15" class="cluster"><title>cluster_Generic\UserBundle\Entity</title>
<polyline fill="none" stroke="gray" points="633,-24 679,-24 "/>
<path fill="none" stroke="gray" d="M679,-24C685,-24 691,-30 691,-36"/>
<polyline fill="none" stroke="gray" points="691,-36 691,-86 "/>
<path fill="none" stroke="gray" d="M691,-86C691,-92 685,-98 679,-98"/>
<polyline fill="none" stroke="gray" points="679,-98 633,-98 "/>
<path fill="none" stroke="gray" d="M633,-98C627,-98 621,-92 621,-86"/>
<polyline fill="none" stroke="gray" points="621,-86 621,-36 "/>
<path fill="none" stroke="gray" d="M621,-36C621,-30 627,-24 633,-24"/>
<text text-anchor="middle" x="656" y="-84.1" font-family="Times Roman,serif" font-size="11.00" fill="gray">Entity</text>
</g>
<g id="graph17" class="cluster"><title>cluster_Grocom</title>
<polyline fill="none" stroke="gray" points="562,-1112 750,-1112 "/>
<path fill="none" stroke="gray" d="M750,-1112C756,-1112 762,-1118 762,-1124"/>
<polyline fill="none" stroke="gray" points="762,-1124 762,-1376 "/>
<path fill="none" stroke="gray" d="M762,-1376C762,-1382 756,-1388 750,-1388"/>
<polyline fill="none" stroke="gray" points="750,-1388 562,-1388 "/>
<path fill="none" stroke="gray" d="M562,-1388C556,-1388 550,-1382 550,-1376"/>
<polyline fill="none" stroke="gray" points="550,-1376 550,-1124 "/>
<path fill="none" stroke="gray" d="M550,-1124C550,-1118 556,-1112 562,-1112"/>
<text text-anchor="middle" x="656" y="-1374.1" font-family="Times Roman,serif" font-size="11.00" fill="gray">Grocom</text>
</g>
<g id="graph18" class="cluster"><title>cluster_Grocom\ManufacturerBundle</title>
<polyline fill="none" stroke="gray" points="570,-1284 742,-1284 "/>
<path fill="none" stroke="gray" d="M742,-1284C748,-1284 754,-1290 754,-1296"/>
<polyline fill="none" stroke="gray" points="754,-1296 754,-1346 "/>
<path fill="none" stroke="gray" d="M754,-1346C754,-1352 748,-1358 742,-1358"/>
<polyline fill="none" stroke="gray" points="742,-1358 570,-1358 "/>
<path fill="none" stroke="gray" d="M570,-1358C564,-1358 558,-1352 558,-1346"/>
<polyline fill="none" stroke="gray" points="558,-1346 558,-1296 "/>
<path fill="none" stroke="gray" d="M558,-1296C558,-1290 564,-1284 570,-1284"/>
<text text-anchor="middle" x="656" y="-1344.1" font-family="Times Roman,serif" font-size="11.00" fill="gray">ManufacturerBundle</text>
</g>
<g id="graph19" class="cluster"><title>cluster_Grocom\OrderBundle</title>
<polyline fill="none" stroke="gray" points="594,-1202 718,-1202 "/>
<path fill="none" stroke="gray" d="M718,-1202C724,-1202 730,-1208 730,-1214"/>
<polyline fill="none" stroke="gray" points="730,-1214 730,-1264 "/>
<path fill="none" stroke="gray" d="M730,-1264C730,-1270 724,-1276 718,-1276"/>
<polyline fill="none" stroke="gray" points="718,-1276 594,-1276 "/>
<path fill="none" stroke="gray" d="M594,-1276C588,-1276 582,-1270 582,-1264"/>
<polyline fill="none" stroke="gray" points="582,-1264 582,-1214 "/>
<path fill="none" stroke="gray" d="M582,-1214C582,-1208 588,-1202 594,-1202"/>
<text text-anchor="middle" x="656" y="-1262.1" font-family="Times Roman,serif" font-size="11.00" fill="gray">OrderBundle</text>
</g>
<g id="graph20" class="cluster"><title>cluster_Grocom\ProductBundle</title>
<polyline fill="none" stroke="gray" points="587,-1120 725,-1120 "/>
<path fill="none" stroke="gray" d="M725,-1120C731,-1120 737,-1126 737,-1132"/>
<polyline fill="none" stroke="gray" points="737,-1132 737,-1182 "/>
<path fill="none" stroke="gray" d="M737,-1182C737,-1188 731,-1194 725,-1194"/>
<polyline fill="none" stroke="gray" points="725,-1194 587,-1194 "/>
<path fill="none" stroke="gray" d="M587,-1194C581,-1194 575,-1188 575,-1182"/>
<polyline fill="none" stroke="gray" points="575,-1182 575,-1132 "/>
<path fill="none" stroke="gray" d="M575,-1132C575,-1126 581,-1120 587,-1120"/>
<text text-anchor="middle" x="656" y="-1180.1" font-family="Times Roman,serif" font-size="11.00" fill="gray">ProductBundle</text>
</g>
<!-- \\Generic\\BackOfficeBundle\\GenericBackOfficeBundle -->
<g id="node3" class="node"><title>\\Generic\\BackOfficeBundle\\GenericBackOfficeBundle</title>
<a xlink:href="Generic.BackOfficeBundle.GenericBackOfficeBundle.html" xlink:title="GenericBackOfficeBundle" target="_parent">
<polygon fill="none" stroke="black" points="742,-1044 570,-1044 570,-1008 742,-1008 742,-1044"/>
<text text-anchor="middle" x="656" y="-1023.1" font-family="Courier,monospace" font-size="11.00">GenericBackOfficeBundle</text>
</a>
</g>
<!-- \\Symfony\\Component\\HttpKernel\\Bundle\\Bundle -->
<g id="node37" class="node"><title>\\Symfony\\Component\\HttpKernel\\Bundle\\Bundle</title>
<ellipse fill="none" stroke="black" cx="247" cy="-698" rx="246.78" ry="18.3848"/>
<text text-anchor="middle" x="247" y="-694.4" font-family="Times Roman,serif" font-size="14.00" fill="gray">\Symfony\Component\HttpKernel\Bundle\Bundle</text>
</g>
<!-- \\Generic\\BackOfficeBundle\\GenericBackOfficeBundle&#45;&gt;\\Symfony\\Component\\HttpKernel\\Bundle\\Bundle -->
<g id="edge49" class="edge"><title>\\Generic\\BackOfficeBundle\\GenericBackOfficeBundle&#45;&gt;\\Symfony\\Component\\HttpKernel\\Bundle\\Bundle</title>
<path fill="none" stroke="black" d="M575.502,-1007.9C566.625,-1004.55 557.937,-1000.61 550,-996 422.881,-922.125 310.071,-782.698 266.316,-724.532"/>
<polygon fill="none" stroke="black" points="268.914,-722.162 260.131,-716.237 263.303,-726.346 268.914,-722.162"/>
</g>
<!-- \\Generic\\CommentBundle\\GenericCommentBundle -->
<g id="node5" class="node"><title>\\Generic\\CommentBundle\\GenericCommentBundle</title>
<a xlink:href="Generic.CommentBundle.GenericCommentBundle.html" xlink:title="GenericCommentBundle" target="_parent">
<polygon fill="none" stroke="black" points="732,-962 580,-962 580,-926 732,-926 732,-962"/>
<text text-anchor="middle" x="656" y="-941.1" font-family="Courier,monospace" font-size="11.00">GenericCommentBundle</text>
</a>
</g>
<!-- \\Generic\\CommentBundle\\GenericCommentBundle&#45;&gt;\\Symfony\\Component\\HttpKernel\\Bundle\\Bundle -->
<g id="edge33" class="edge"><title>\\Generic\\CommentBundle\\GenericCommentBundle&#45;&gt;\\Symfony\\Component\\HttpKernel\\Bundle\\Bundle</title>
<path fill="none" stroke="black" d="M580.114,-925.978C569.784,-922.533 559.483,-918.552 550,-914 439.16,-860.791 325.659,-767.316 274.713,-722.852"/>
<polygon fill="none" stroke="black" points="276.907,-720.121 267.084,-716.151 272.287,-725.38 276.907,-720.121"/>
</g>
<!-- \\Generic\\EAVBundle\\GenericEAVBundle -->
<g id="node7" class="node"><title>\\Generic\\EAVBundle\\GenericEAVBundle</title>
<a xlink:href="Generic.EAVBundle.GenericEAVBundle.html" xlink:title="GenericEAVBundle" target="_parent">
<polygon fill="none" stroke="black" points="718,-880 594,-880 594,-844 718,-844 718,-880"/>
<text text-anchor="middle" x="656" y="-859.1" font-family="Courier,monospace" font-size="11.00">GenericEAVBundle</text>
</a>
</g>
<!-- \\Generic\\EAVBundle\\GenericEAVBundle&#45;&gt;\\Symfony\\Component\\HttpKernel\\Bundle\\Bundle -->
<g id="edge31" class="edge"><title>\\Generic\\EAVBundle\\GenericEAVBundle&#45;&gt;\\Symfony\\Component\\HttpKernel\\Bundle\\Bundle</title>
<path fill="none" stroke="black" d="M593.32,-845.837C578.963,-841.7 563.853,-836.996 550,-832 456.46,-798.269 351.079,-748.987 292.506,-720.54"/>
<polygon fill="none" stroke="black" points="293.691,-717.224 283.169,-715.989 290.624,-723.516 293.691,-717.224"/>
</g>
<!-- \\Generic\\FacebookBundle\\GenericFacebookBundle -->
<g id="node9" class="node"><title>\\Generic\\FacebookBundle\\GenericFacebookBundle</title>
<a xlink:href="Generic.FacebookBundle.GenericFacebookBundle.html" xlink:title="GenericFacebookBundle" target="_parent">
<polygon fill="none" stroke="black" points="735,-798 577,-798 577,-762 735,-762 735,-798"/>
<text text-anchor="middle" x="656" y="-777.1" font-family="Courier,monospace" font-size="11.00">GenericFacebookBundle</text>
</a>
</g>
<!-- \\Generic\\FacebookBundle\\GenericFacebookBundle&#45;&gt;\\Symfony\\Component\\HttpKernel\\Bundle\\Bundle -->
<g id="edge41" class="edge"><title>\\Generic\\FacebookBundle\\GenericFacebookBundle&#45;&gt;\\Symfony\\Component\\HttpKernel\\Bundle\\Bundle</title>
<path fill="none" stroke="black" d="M576.656,-764.092C509.319,-750.592 412.565,-731.194 341.287,-716.903"/>
<polygon fill="none" stroke="black" points="341.896,-713.456 331.404,-714.922 340.52,-720.32 341.896,-713.456"/>
</g>
<!-- \\Generic\\ForumBundle\\GenericForumBundle -->
<g id="node11" class="node"><title>\\Generic\\ForumBundle\\GenericForumBundle</title>
<a xlink:href="Generic.ForumBundle.GenericForumBundle.html" xlink:title="GenericForumBundle" target="_parent">
<polygon fill="none" stroke="black" points="725,-716 587,-716 587,-680 725,-680 725,-716"/>
<text text-anchor="middle" x="656" y="-695.1" font-family="Courier,monospace" font-size="11.00">GenericForumBundle</text>
</a>
</g>
<!-- \\Generic\\ForumBundle\\GenericForumBundle&#45;&gt;\\Symfony\\Component\\HttpKernel\\Bundle\\Bundle -->
<g id="edge51" class="edge"><title>\\Generic\\ForumBundle\\GenericForumBundle&#45;&gt;\\Symfony\\Component\\HttpKernel\\Bundle\\Bundle</title>
<path fill="none" stroke="black" d="M586.619,-698C562.764,-698 534.469,-698 504.547,-698"/>
<polygon fill="none" stroke="black" points="504.341,-694.5 494.341,-698 504.341,-701.5 504.341,-694.5"/>
</g>
<!-- \\Generic\\MailBundle\\GenericMailBundle -->
<g id="node13" class="node"><title>\\Generic\\MailBundle\\GenericMailBundle</title>
<a xlink:href="Generic.MailBundle.GenericMailBundle.html" xlink:title="GenericMailBundle" target="_parent">
<polygon fill="none" stroke="black" points="721,-634 591,-634 591,-598 721,-598 721,-634"/>
<text text-anchor="middle" x="656" y="-613.1" font-family="Courier,monospace" font-size="11.00">GenericMailBundle</text>
</a>
</g>
<!-- \\Generic\\MailBundle\\GenericMailBundle&#45;&gt;\\Symfony\\Component\\HttpKernel\\Bundle\\Bundle -->
<g id="edge43" class="edge"><title>\\Generic\\MailBundle\\GenericMailBundle&#45;&gt;\\Symfony\\Component\\HttpKernel\\Bundle\\Bundle</title>
<path fill="none" stroke="black" d="M590.287,-629.175C523.078,-642.649 418,-663.716 341.794,-678.995"/>
<polygon fill="none" stroke="black" points="340.827,-675.619 331.71,-681.017 342.203,-682.482 340.827,-675.619"/>
</g>
<!-- \\Generic\\NewsletterBundle\\GenericNewsletterBundle -->
<g id="node15" class="node"><title>\\Generic\\NewsletterBundle\\GenericNewsletterBundle</title>
<a xlink:href="Generic.NewsletterBundle.GenericNewsletterBundle.html" xlink:title="GenericNewsletterBundle" target="_parent">
<polygon fill="none" stroke="black" points="742,-552 570,-552 570,-516 742,-516 742,-552"/>
<text text-anchor="middle" x="656" y="-531.1" font-family="Courier,monospace" font-size="11.00">GenericNewsletterBundle</text>
</a>
</g>
<!-- \\Generic\\NewsletterBundle\\GenericNewsletterBundle&#45;&gt;\\Symfony\\Component\\HttpKernel\\Bundle\\Bundle -->
<g id="edge29" class="edge"><title>\\Generic\\NewsletterBundle\\GenericNewsletterBundle&#45;&gt;\\Symfony\\Component\\HttpKernel\\Bundle\\Bundle</title>
<path fill="none" stroke="black" d="M611.06,-552.02C535.285,-582.404 382.416,-643.701 300.963,-676.362"/>
<polygon fill="none" stroke="black" points="299.372,-673.229 291.393,-680.199 301.977,-679.726 299.372,-673.229"/>
</g>
<!-- \\Generic\\PaginatorBundle\\GenericPaginatorBundle -->
<g id="node17" class="node"><title>\\Generic\\PaginatorBundle\\GenericPaginatorBundle</title>
<a xlink:href="Generic.PaginatorBundle.GenericPaginatorBundle.html" xlink:title="GenericPaginatorBundle" target="_parent">
<polygon fill="none" stroke="black" points="738,-470 574,-470 574,-434 738,-434 738,-470"/>
<text text-anchor="middle" x="656" y="-449.1" font-family="Courier,monospace" font-size="11.00">GenericPaginatorBundle</text>
</a>
</g>
<!-- \\Generic\\PaginatorBundle\\GenericPaginatorBundle&#45;&gt;\\Symfony\\Component\\HttpKernel\\Bundle\\Bundle -->
<g id="edge39" class="edge"><title>\\Generic\\PaginatorBundle\\GenericPaginatorBundle&#45;&gt;\\Symfony\\Component\\HttpKernel\\Bundle\\Bundle</title>
<path fill="none" stroke="black" d="M616.437,-470.098C596.27,-479.651 571.523,-491.882 550,-504 449.77,-560.432 336.954,-636.06 281.521,-674.068"/>
<polygon fill="none" stroke="black" points="279.387,-671.287 273.128,-679.836 283.352,-677.056 279.387,-671.287"/>
</g>
<!-- \\Generic\\SearchBundle\\GenericSearchBundle -->
<g id="node19" class="node"><title>\\Generic\\SearchBundle\\GenericSearchBundle</title>
<a xlink:href="Generic.SearchBundle.GenericSearchBundle.html" xlink:title="GenericSearchBundle" target="_parent">
<polygon fill="none" stroke="black" points="728,-388 584,-388 584,-352 728,-352 728,-388"/>
<text text-anchor="middle" x="656" y="-367.1" font-family="Courier,monospace" font-size="11.00">GenericSearchBundle</text>
</a>
</g>
<!-- \\Generic\\SearchBundle\\GenericSearchBundle&#45;&gt;\\Symfony\\Component\\HttpKernel\\Bundle\\Bundle -->
<g id="edge45" class="edge"><title>\\Generic\\SearchBundle\\GenericSearchBundle&#45;&gt;\\Symfony\\Component\\HttpKernel\\Bundle\\Bundle</title>
<path fill="none" stroke="black" d="M612.172,-388.115C592.453,-397.106 569.32,-408.855 550,-422 434.727,-500.43 318.406,-620.489 270.172,-672.505"/>
<polygon fill="none" stroke="black" points="267.5,-670.24 263.291,-679.963 272.645,-674.987 267.5,-670.24"/>
</g>
<!-- \\Generic\\StyleBundle\\GenericStyleBundle -->
<g id="node21" class="node"><title>\\Generic\\StyleBundle\\GenericStyleBundle</title>
<a xlink:href="Generic.StyleBundle.GenericStyleBundle.html" xlink:title="GenericStyleBundle" target="_parent">
<polygon fill="none" stroke="black" points="725,-306 587,-306 587,-270 725,-270 725,-306"/>
<text text-anchor="middle" x="656" y="-285.1" font-family="Courier,monospace" font-size="11.00">GenericStyleBundle</text>
</a>
</g>
<!-- \\Generic\\StyleBundle\\GenericStyleBundle&#45;&gt;\\Symfony\\Component\\HttpKernel\\Bundle\\Bundle -->
<g id="edge27" class="edge"><title>\\Generic\\StyleBundle\\GenericStyleBundle&#45;&gt;\\Symfony\\Component\\HttpKernel\\Bundle\\Bundle</title>
<path fill="none" stroke="black" d="M608.98,-306.038C589.652,-314.69 567.701,-326.199 550,-340 419.942,-441.407 306.018,-606.443 264.107,-670.95"/>
<polygon fill="none" stroke="black" points="260.931,-669.418 258.453,-679.719 266.814,-673.211 260.931,-669.418"/>
</g>
<!-- \\Generic\\TwitterBundle\\GenericTwitterBundle -->
<g id="node23" class="node"><title>\\Generic\\TwitterBundle\\GenericTwitterBundle</title>
<a xlink:href="Generic.TwitterBundle.GenericTwitterBundle.html" xlink:title="GenericTwitterBundle" target="_parent">
<polygon fill="none" stroke="black" points="732,-224 580,-224 580,-188 732,-188 732,-224"/>
<text text-anchor="middle" x="656" y="-203.1" font-family="Courier,monospace" font-size="11.00">GenericTwitterBundle</text>
</a>
</g>
<!-- \\Generic\\TwitterBundle\\GenericTwitterBundle&#45;&gt;\\Symfony\\Component\\HttpKernel\\Bundle\\Bundle -->
<g id="edge47" class="edge"><title>\\Generic\\TwitterBundle\\GenericTwitterBundle&#45;&gt;\\Symfony\\Component\\HttpKernel\\Bundle\\Bundle</title>
<path fill="none" stroke="black" d="M606.414,-224.017C587.451,-232.451 566.45,-243.806 550,-258 404.165,-383.833 295.538,-595.07 259.725,-670.335"/>
<polygon fill="none" stroke="black" points="256.441,-669.093 255.344,-679.631 262.773,-672.077 256.441,-669.093"/>
</g>
<!-- \\Generic\\UserBundle\\Entity\\User -->
<g id="node26" class="node"><title>\\Generic\\UserBundle\\Entity\\User</title>
<a xlink:href="Generic.UserBundle.Entity.User.html" xlink:title="User" target="_parent">
<polygon fill="none" stroke="black" points="683,-68 629,-68 629,-32 683,-32 683,-68"/>
<text text-anchor="middle" x="656" y="-47.1" font-family="Courier,monospace" font-size="11.00">User</text>
</a>
</g>
<!-- \\FOS\\UserBundle\\Entity\\User -->
<g id="node45" class="node"><title>\\FOS\\UserBundle\\Entity\\User</title>
<ellipse fill="none" stroke="black" cx="247" cy="-50" rx="152.234" ry="18.3848"/>
<text text-anchor="middle" x="247" y="-46.4" font-family="Times Roman,serif" font-size="14.00" fill="gray">\FOS\UserBundle\Entity\User</text>
</g>
<!-- \\Generic\\UserBundle\\Entity\\User&#45;&gt;\\FOS\\UserBundle\\Entity\\User -->
<g id="edge35" class="edge"><title>\\Generic\\UserBundle\\Entity\\User&#45;&gt;\\FOS\\UserBundle\\Entity\\User</title>
<path fill="none" stroke="black" d="M628.848,-50C584.272,-50 492.274,-50 409.75,-50"/>
<polygon fill="none" stroke="black" points="409.737,-46.5001 399.737,-50 409.737,-53.5001 409.737,-46.5001"/>
</g>
<!-- \\Generic\\UserBundle\\GenericUserBundle -->
<g id="node27" class="node"><title>\\Generic\\UserBundle\\GenericUserBundle</title>
<a xlink:href="Generic.UserBundle.GenericUserBundle.html" xlink:title="GenericUserBundle" target="_parent">
<polygon fill="none" stroke="black" points="721,-142 591,-142 591,-106 721,-106 721,-142"/>
<text text-anchor="middle" x="656" y="-121.1" font-family="Courier,monospace" font-size="11.00">GenericUserBundle</text>
</a>
</g>
<!-- \\Generic\\UserBundle\\GenericUserBundle&#45;&gt;\\Symfony\\Component\\HttpKernel\\Bundle\\Bundle -->
<g id="edge37" class="edge"><title>\\Generic\\UserBundle\\GenericUserBundle&#45;&gt;\\Symfony\\Component\\HttpKernel\\Bundle\\Bundle</title>
<path fill="none" stroke="black" d="M604.217,-142.091C585.616,-150.371 565.441,-161.601 550,-176 387.781,-327.265 286.67,-585.26 256.517,-670.072"/>
<polygon fill="none" stroke="black" points="253.126,-669.166 253.115,-679.76 259.731,-671.485 253.126,-669.166"/>
</g>
<!-- \\Grocom\\ManufacturerBundle\\GrocomManufacturerBundle -->
<g id="node31" class="node"><title>\\Grocom\\ManufacturerBundle\\GrocomManufacturerBundle</title>
<a xlink:href="Grocom.ManufacturerBundle.GrocomManufacturerBundle.html" xlink:title="GrocomManufacturerBundle" target="_parent">
<polygon fill="none" stroke="black" points="745,-1328 567,-1328 567,-1292 745,-1292 745,-1328"/>
<text text-anchor="middle" x="656" y="-1307.1" font-family="Courier,monospace" font-size="11.00">GrocomManufacturerBundle</text>
</a>
</g>
<!-- \\Grocom\\ManufacturerBundle\\GrocomManufacturerBundle&#45;&gt;\\Symfony\\Component\\HttpKernel\\Bundle\\Bundle -->
<g id="edge25" class="edge"><title>\\Grocom\\ManufacturerBundle\\GrocomManufacturerBundle&#45;&gt;\\Symfony\\Component\\HttpKernel\\Bundle\\Bundle</title>
<path fill="none" stroke="black" d="M568.837,-1291.9C562.1,-1288.58 555.71,-1284.65 550,-1280 360.099,-1125.4 275.472,-820.062 253.222,-726.15"/>
<polygon fill="none" stroke="black" points="256.596,-725.204 250.925,-716.255 249.777,-726.787 256.596,-725.204"/>
</g>
<!-- \\Grocom\\OrderBundle\\GrocomOrderBundle -->
<g id="node33" class="node"><title>\\Grocom\\OrderBundle\\GrocomOrderBundle</title>
<a xlink:href="Grocom.OrderBundle.GrocomOrderBundle.html" xlink:title="GrocomOrderBundle" target="_parent">
<polygon fill="none" stroke="black" points="721,-1246 591,-1246 591,-1210 721,-1210 721,-1246"/>
<text text-anchor="middle" x="656" y="-1225.1" font-family="Courier,monospace" font-size="11.00">GrocomOrderBundle</text>
</a>
</g>
<!-- \\Grocom\\OrderBundle\\GrocomOrderBundle&#45;&gt;\\Symfony\\Component\\HttpKernel\\Bundle\\Bundle -->
<g id="edge21" class="edge"><title>\\Grocom\\OrderBundle\\GrocomOrderBundle&#45;&gt;\\Symfony\\Component\\HttpKernel\\Bundle\\Bundle</title>
<path fill="none" stroke="black" d="M590.461,-1217.68C576.159,-1213.27 561.792,-1206.98 550,-1198 379.079,-1067.82 283.656,-811.085 255.734,-726.074"/>
<polygon fill="none" stroke="black" points="258.999,-724.794 252.592,-716.355 252.338,-726.947 258.999,-724.794"/>
</g>
<!-- \\Grocom\\ProductBundle\\GrocomProductBundle -->
<g id="node35" class="node"><title>\\Grocom\\ProductBundle\\GrocomProductBundle</title>
<a xlink:href="Grocom.ProductBundle.GrocomProductBundle.html" xlink:title="GrocomProductBundle" target="_parent">
<polygon fill="none" stroke="black" points="728,-1164 584,-1164 584,-1128 728,-1128 728,-1164"/>
<text text-anchor="middle" x="656" y="-1143.1" font-family="Courier,monospace" font-size="11.00">GrocomProductBundle</text>
</a>
</g>
<!-- \\Grocom\\ProductBundle\\GrocomProductBundle&#45;&gt;\\Symfony\\Component\\HttpKernel\\Bundle\\Bundle -->
<g id="edge23" class="edge"><title>\\Grocom\\ProductBundle\\GrocomProductBundle&#45;&gt;\\Symfony\\Component\\HttpKernel\\Bundle\\Bundle</title>
<path fill="none" stroke="black" d="M621.545,-1127.76C599.776,-1115.34 571.753,-1097.63 550,-1078 422.552,-963.018 306.321,-790.817 263.96,-724.944"/>
<polygon fill="none" stroke="black" points="266.815,-722.912 258.48,-716.372 260.917,-726.682 266.815,-722.912"/>
</g>
</g>
</svg>
