<?xml version="1.0" encoding="UTF-8" standalone="no"?>
<!DOCTYPE svg PUBLIC "-//W3C//DTD SVG 1.1//EN"
 "http://www.w3.org/Graphics/SVG/1.1/DTD/svg11.dtd">
<!-- Generated by graphviz version 2.26.3 (20100126.1600)
 -->
<!-- Title: G Pages: 1 -->
<svg width="1006pt" height="2112pt"
 viewBox="0.00 0.00 1006.00 2111.80" xmlns="http://www.w3.org/2000/svg" xmlns:xlink="http://www.w3.org/1999/xlink">
<g id="graph1" class="graph" transform="scale(1 1) rotate(0) translate(4 2107.8)">
<title>G</title>
<polygon fill="white" stroke="white" points="-4,5 -4,-2107.8 1003,-2107.8 1003,5 -4,5"/>
<g id="graph2" class="cluster"><title>cluster_Generic</title>
<polyline fill="none" stroke="gray" points="256,-481.803 808,-481.803 "/>
<path fill="none" stroke="gray" d="M808,-481.803C814,-481.803 820,-487.803 820,-493.803"/>
<polyline fill="none" stroke="gray" points="820,-493.803 820,-2083.8 "/>
<path fill="none" stroke="gray" d="M820,-2083.8C820,-2089.8 814,-2095.8 808,-2095.8"/>
<polyline fill="none" stroke="gray" points="808,-2095.8 256,-2095.8 "/>
<path fill="none" stroke="gray" d="M256,-2095.8C250,-2095.8 244,-2089.8 244,-2083.8"/>
<polyline fill="none" stroke="gray" points="244,-2083.8 244,-493.803 "/>
<path fill="none" stroke="gray" d="M244,-493.803C244,-487.803 250,-481.803 256,-481.803"/>
<text text-anchor="middle" x="532" y="-2081.9" font-family="Times Roman,serif" font-size="11.00" fill="gray">Generic</text>
</g>
<g id="graph3" class="cluster"><title>cluster_Generic\Admin</title>
<polyline fill="none" stroke="gray" points="674,-1279.8 800,-1279.8 "/>
<path fill="none" stroke="gray" d="M800,-1279.8C806,-1279.8 812,-1285.8 812,-1291.8"/>
<polyline fill="none" stroke="gray" points="812,-1291.8 812,-1425.8 "/>
<path fill="none" stroke="gray" d="M812,-1425.8C812,-1431.8 806,-1437.8 800,-1437.8"/>
<polyline fill="none" stroke="gray" points="800,-1437.8 674,-1437.8 "/>
<path fill="none" stroke="gray" d="M674,-1437.8C668,-1437.8 662,-1431.8 662,-1425.8"/>
<polyline fill="none" stroke="gray" points="662,-1425.8 662,-1291.8 "/>
<path fill="none" stroke="gray" d="M662,-1291.8C662,-1285.8 668,-1279.8 674,-1279.8"/>
<text text-anchor="middle" x="737" y="-1423.9" font-family="Times Roman,serif" font-size="11.00" fill="gray">Admin</text>
</g>
<g id="graph4" class="cluster"><title>cluster_Generic\Admin\Controller</title>
<polyline fill="none" stroke="gray" points="682,-1333.8 792,-1333.8 "/>
<path fill="none" stroke="gray" d="M792,-1333.8C798,-1333.8 804,-1339.8 804,-1345.8"/>
<polyline fill="none" stroke="gray" points="804,-1345.8 804,-1395.8 "/>
<path fill="none" stroke="gray" d="M804,-1395.8C804,-1401.8 798,-1407.8 792,-1407.8"/>
<polyline fill="none" stroke="gray" points="792,-1407.8 682,-1407.8 "/>
<path fill="none" stroke="gray" d="M682,-1407.8C676,-1407.8 670,-1401.8 670,-1395.8"/>
<polyline fill="none" stroke="gray" points="670,-1395.8 670,-1345.8 "/>
<path fill="none" stroke="gray" d="M670,-1345.8C670,-1339.8 676,-1333.8 682,-1333.8"/>
<text text-anchor="middle" x="737" y="-1393.9" font-family="Times Roman,serif" font-size="11.00" fill="gray">Controller</text>
</g>
<g id="graph6" class="cluster"><title>cluster_Generic\Comment</title>
<polyline fill="none" stroke="gray" points="685,-893.803 789,-893.803 "/>
<path fill="none" stroke="gray" d="M789,-893.803C795,-893.803 801,-899.803 801,-905.803"/>
<polyline fill="none" stroke="gray" points="801,-905.803 801,-1093.8 "/>
<path fill="none" stroke="gray" d="M801,-1093.8C801,-1099.8 795,-1105.8 789,-1105.8"/>
<polyline fill="none" stroke="gray" points="789,-1105.8 685,-1105.8 "/>
<path fill="none" stroke="gray" d="M685,-1105.8C679,-1105.8 673,-1099.8 673,-1093.8"/>
<polyline fill="none" stroke="gray" points="673,-1093.8 673,-905.803 "/>
<path fill="none" stroke="gray" d="M673,-905.803C673,-899.803 679,-893.803 685,-893.803"/>
<text text-anchor="middle" x="737" y="-1091.9" font-family="Times Roman,serif" font-size="11.00" fill="gray">Comment</text>
</g>
<g id="graph7" class="cluster"><title>cluster_Generic\Comment\Entity</title>
<polyline fill="none" stroke="gray" points="709,-947.803 765,-947.803 "/>
<path fill="none" stroke="gray" d="M765,-947.803C771,-947.803 777,-953.803 777,-959.803"/>
<polyline fill="none" stroke="gray" points="777,-959.803 777,-1063.8 "/>
<path fill="none" stroke="gray" d="M777,-1063.8C777,-1069.8 771,-1075.8 765,-1075.8"/>
<polyline fill="none" stroke="gray" points="765,-1075.8 709,-1075.8 "/>
<path fill="none" stroke="gray" d="M709,-1075.8C703,-1075.8 697,-1069.8 697,-1063.8"/>
<polyline fill="none" stroke="gray" points="697,-1063.8 697,-959.803 "/>
<path fill="none" stroke="gray" d="M697,-959.803C697,-953.803 703,-947.803 709,-947.803"/>
<text text-anchor="middle" x="737" y="-1061.9" font-family="Times Roman,serif" font-size="11.00" fill="gray">Entity</text>
</g>
<g id="graph9" class="cluster"><title>cluster_Generic\EAV</title>
<polyline fill="none" stroke="gray" points="264,-1445.8 798,-1445.8 "/>
<path fill="none" stroke="gray" d="M798,-1445.8C804,-1445.8 810,-1451.8 810,-1457.8"/>
<polyline fill="none" stroke="gray" points="810,-1457.8 810,-2053.8 "/>
<path fill="none" stroke="gray" d="M810,-2053.8C810,-2059.8 804,-2065.8 798,-2065.8"/>
<polyline fill="none" stroke="gray" points="798,-2065.8 264,-2065.8 "/>
<path fill="none" stroke="gray" d="M264,-2065.8C258,-2065.8 252,-2059.8 252,-2053.8"/>
<polyline fill="none" stroke="gray" points="252,-2053.8 252,-1457.8 "/>
<path fill="none" stroke="gray" d="M252,-1457.8C252,-1451.8 258,-1445.8 264,-1445.8"/>
<text text-anchor="middle" x="531" y="-2051.9" font-family="Times Roman,serif" font-size="11.00" fill="gray">EAV</text>
</g>
<g id="graph10" class="cluster"><title>cluster_Generic\EAV\Entity</title>
<polyline fill="none" stroke="gray" points="272,-1499.8 790,-1499.8 "/>
<path fill="none" stroke="gray" d="M790,-1499.8C796,-1499.8 802,-1505.8 802,-1511.8"/>
<polyline fill="none" stroke="gray" points="802,-1511.8 802,-2023.8 "/>
<path fill="none" stroke="gray" d="M802,-2023.8C802,-2029.8 796,-2035.8 790,-2035.8"/>
<polyline fill="none" stroke="gray" points="790,-2035.8 272,-2035.8 "/>
<path fill="none" stroke="gray" d="M272,-2035.8C266,-2035.8 260,-2029.8 260,-2023.8"/>
<polyline fill="none" stroke="gray" points="260,-2023.8 260,-1511.8 "/>
<path fill="none" stroke="gray" d="M260,-1511.8C260,-1505.8 266,-1499.8 272,-1499.8"/>
<text text-anchor="middle" x="531" y="-2021.9" font-family="Times Roman,serif" font-size="11.00" fill="gray">Entity</text>
</g>
<g id="graph11" class="cluster"><title>cluster_Generic\EAV\Entity\Value</title>
<polyline fill="none" stroke="gray" points="280,-1661.8 782,-1661.8 "/>
<path fill="none" stroke="gray" d="M782,-1661.8C788,-1661.8 794,-1667.8 794,-1673.8"/>
<polyline fill="none" stroke="gray" points="794,-1673.8 794,-1993.8 "/>
<path fill="none" stroke="gray" d="M794,-1993.8C794,-1999.8 788,-2005.8 782,-2005.8"/>
<polyline fill="none" stroke="gray" points="782,-2005.8 280,-2005.8 "/>
<path fill="none" stroke="gray" d="M280,-2005.8C274,-2005.8 268,-1999.8 268,-1993.8"/>
<polyline fill="none" stroke="gray" points="268,-1993.8 268,-1673.8 "/>
<path fill="none" stroke="gray" d="M268,-1673.8C268,-1667.8 274,-1661.8 280,-1661.8"/>
<text text-anchor="middle" x="531" y="-1991.9" font-family="Times Roman,serif" font-size="11.00" fill="gray">Value</text>
</g>
<g id="graph14" class="cluster"><title>cluster_Generic\Site</title>
<polyline fill="none" stroke="gray" points="677,-1113.8 797,-1113.8 "/>
<path fill="none" stroke="gray" d="M797,-1113.8C803,-1113.8 809,-1119.8 809,-1125.8"/>
<polyline fill="none" stroke="gray" points="809,-1125.8 809,-1259.8 "/>
<path fill="none" stroke="gray" d="M809,-1259.8C809,-1265.8 803,-1271.8 797,-1271.8"/>
<polyline fill="none" stroke="gray" points="797,-1271.8 677,-1271.8 "/>
<path fill="none" stroke="gray" d="M677,-1271.8C671,-1271.8 665,-1265.8 665,-1259.8"/>
<polyline fill="none" stroke="gray" points="665,-1259.8 665,-1125.8 "/>
<path fill="none" stroke="gray" d="M665,-1125.8C665,-1119.8 671,-1113.8 677,-1113.8"/>
<text text-anchor="middle" x="737" y="-1257.9" font-family="Times Roman,serif" font-size="11.00" fill="gray">Site</text>
</g>
<g id="graph15" class="cluster"><title>cluster_Generic\Site\Controller</title>
<polyline fill="none" stroke="gray" points="685,-1167.8 789,-1167.8 "/>
<path fill="none" stroke="gray" d="M789,-1167.8C795,-1167.8 801,-1173.8 801,-1179.8"/>
<polyline fill="none" stroke="gray" points="801,-1179.8 801,-1229.8 "/>
<path fill="none" stroke="gray" d="M801,-1229.8C801,-1235.8 795,-1241.8 789,-1241.8"/>
<polyline fill="none" stroke="gray" points="789,-1241.8 685,-1241.8 "/>
<path fill="none" stroke="gray" d="M685,-1241.8C679,-1241.8 673,-1235.8 673,-1229.8"/>
<polyline fill="none" stroke="gray" points="673,-1229.8 673,-1179.8 "/>
<path fill="none" stroke="gray" d="M673,-1179.8C673,-1173.8 679,-1167.8 685,-1167.8"/>
<text text-anchor="middle" x="737" y="-1227.9" font-family="Times Roman,serif" font-size="11.00" fill="gray">Controller</text>
</g>
<g id="graph16" class="cluster"><title>cluster_Generic\User</title>
<polyline fill="none" stroke="gray" points="676,-489.803 798,-489.803 "/>
<path fill="none" stroke="gray" d="M798,-489.803C804,-489.803 810,-495.803 810,-501.803"/>
<polyline fill="none" stroke="gray" points="810,-501.803 810,-873.803 "/>
<path fill="none" stroke="gray" d="M810,-873.803C810,-879.803 804,-885.803 798,-885.803"/>
<polyline fill="none" stroke="gray" points="798,-885.803 676,-885.803 "/>
<path fill="none" stroke="gray" d="M676,-885.803C670,-885.803 664,-879.803 664,-873.803"/>
<polyline fill="none" stroke="gray" points="664,-873.803 664,-501.803 "/>
<path fill="none" stroke="gray" d="M664,-501.803C664,-495.803 670,-489.803 676,-489.803"/>
<text text-anchor="middle" x="737" y="-871.903" font-family="Times Roman,serif" font-size="11.00" fill="gray">User</text>
</g>
<g id="graph17" class="cluster"><title>cluster_Generic\User\DataFixtures</title>
<polyline fill="none" stroke="gray" points="684,-743.803 790,-743.803 "/>
<path fill="none" stroke="gray" d="M790,-743.803C796,-743.803 802,-749.803 802,-755.803"/>
<polyline fill="none" stroke="gray" points="802,-755.803 802,-843.803 "/>
<path fill="none" stroke="gray" d="M802,-843.803C802,-849.803 796,-855.803 790,-855.803"/>
<polyline fill="none" stroke="gray" points="790,-855.803 684,-855.803 "/>
<path fill="none" stroke="gray" d="M684,-855.803C678,-855.803 672,-849.803 672,-843.803"/>
<polyline fill="none" stroke="gray" points="672,-843.803 672,-755.803 "/>
<path fill="none" stroke="gray" d="M672,-755.803C672,-749.803 678,-743.803 684,-743.803"/>
<text text-anchor="middle" x="737" y="-841.903" font-family="Times Roman,serif" font-size="11.00" fill="gray">DataFixtures</text>
</g>
<g id="graph18" class="cluster"><title>cluster_Generic\User\DataFixtures\ORM</title>
<polyline fill="none" stroke="gray" points="692,-751.803 782,-751.803 "/>
<path fill="none" stroke="gray" d="M782,-751.803C788,-751.803 794,-757.803 794,-763.803"/>
<polyline fill="none" stroke="gray" points="794,-763.803 794,-813.803 "/>
<path fill="none" stroke="gray" d="M794,-813.803C794,-819.803 788,-825.803 782,-825.803"/>
<polyline fill="none" stroke="gray" points="782,-825.803 692,-825.803 "/>
<path fill="none" stroke="gray" d="M692,-825.803C686,-825.803 680,-819.803 680,-813.803"/>
<polyline fill="none" stroke="gray" points="680,-813.803 680,-763.803 "/>
<path fill="none" stroke="gray" d="M680,-763.803C680,-757.803 686,-751.803 692,-751.803"/>
<text text-anchor="middle" x="737" y="-811.903" font-family="Times Roman,serif" font-size="11.00" fill="gray">ORM</text>
</g>
<g id="graph20" class="cluster"><title>cluster_Generic\User\Entity</title>
<polyline fill="none" stroke="gray" points="714,-661.803 760,-661.803 "/>
<path fill="none" stroke="gray" d="M760,-661.803C766,-661.803 772,-667.803 772,-673.803"/>
<polyline fill="none" stroke="gray" points="772,-673.803 772,-723.803 "/>
<path fill="none" stroke="gray" d="M772,-723.803C772,-729.803 766,-735.803 760,-735.803"/>
<polyline fill="none" stroke="gray" points="760,-735.803 714,-735.803 "/>
<path fill="none" stroke="gray" d="M714,-735.803C708,-735.803 702,-729.803 702,-723.803"/>
<polyline fill="none" stroke="gray" points="702,-723.803 702,-673.803 "/>
<path fill="none" stroke="gray" d="M702,-673.803C702,-667.803 708,-661.803 714,-661.803"/>
<text text-anchor="middle" x="737" y="-721.903" font-family="Times Roman,serif" font-size="11.00" fill="gray">Entity</text>
</g>
<g id="graph21" class="cluster"><title>cluster_Generic\User\Tests</title>
<polyline fill="none" stroke="gray" points="697,-541.803 777,-541.803 "/>
<path fill="none" stroke="gray" d="M777,-541.803C783,-541.803 789,-547.803 789,-553.803"/>
<polyline fill="none" stroke="gray" points="789,-553.803 789,-641.803 "/>
<path fill="none" stroke="gray" d="M789,-641.803C789,-647.803 783,-653.803 777,-653.803"/>
<polyline fill="none" stroke="gray" points="777,-653.803 697,-653.803 "/>
<path fill="none" stroke="gray" d="M697,-653.803C691,-653.803 685,-647.803 685,-641.803"/>
<polyline fill="none" stroke="gray" points="685,-641.803 685,-553.803 "/>
<path fill="none" stroke="gray" d="M685,-553.803C685,-547.803 691,-541.803 697,-541.803"/>
<text text-anchor="middle" x="737" y="-639.903" font-family="Times Roman,serif" font-size="11.00" fill="gray">Tests</text>
</g>
<g id="graph22" class="cluster"><title>cluster_Generic\User\Tests\Entity</title>
<polyline fill="none" stroke="gray" points="705,-549.803 769,-549.803 "/>
<path fill="none" stroke="gray" d="M769,-549.803C775,-549.803 781,-555.803 781,-561.803"/>
<polyline fill="none" stroke="gray" points="781,-561.803 781,-611.803 "/>
<path fill="none" stroke="gray" d="M781,-611.803C781,-617.803 775,-623.803 769,-623.803"/>
<polyline fill="none" stroke="gray" points="769,-623.803 705,-623.803 "/>
<path fill="none" stroke="gray" d="M705,-623.803C699,-623.803 693,-617.803 693,-611.803"/>
<polyline fill="none" stroke="gray" points="693,-611.803 693,-561.803 "/>
<path fill="none" stroke="gray" d="M693,-561.803C693,-555.803 699,-549.803 705,-549.803"/>
<text text-anchor="middle" x="737" y="-609.903" font-family="Times Roman,serif" font-size="11.00" fill="gray">Entity</text>
</g>
<g id="graph28" class="cluster"><title>cluster_Grocom</title>
<polyline fill="none" stroke="gray" points="862,-455.803 978,-455.803 "/>
<path fill="none" stroke="gray" d="M978,-455.803C984,-455.803 990,-461.803 990,-467.803"/>
<polyline fill="none" stroke="gray" points="990,-467.803 990,-859.803 "/>
<path fill="none" stroke="gray" d="M990,-859.803C990,-865.803 984,-871.803 978,-871.803"/>
<polyline fill="none" stroke="gray" points="978,-871.803 862,-871.803 "/>
<path fill="none" stroke="gray" d="M862,-871.803C856,-871.803 850,-865.803 850,-859.803"/>
<polyline fill="none" stroke="gray" points="850,-859.803 850,-467.803 "/>
<path fill="none" stroke="gray" d="M850,-467.803C850,-461.803 856,-455.803 862,-455.803"/>
<text text-anchor="middle" x="920" y="-857.903" font-family="Times Roman,serif" font-size="11.00" fill="gray">Grocom</text>
</g>
<g id="graph29" class="cluster"><title>cluster_Grocom\Order</title>
<polyline fill="none" stroke="gray" points="877,-463.803 963,-463.803 "/>
<path fill="none" stroke="gray" d="M963,-463.803C969,-463.803 975,-469.803 975,-475.803"/>
<polyline fill="none" stroke="gray" points="975,-475.803 975,-609.803 "/>
<path fill="none" stroke="gray" d="M975,-609.803C975,-615.803 969,-621.803 963,-621.803"/>
<polyline fill="none" stroke="gray" points="963,-621.803 877,-621.803 "/>
<path fill="none" stroke="gray" d="M877,-621.803C871,-621.803 865,-615.803 865,-609.803"/>
<polyline fill="none" stroke="gray" points="865,-609.803 865,-475.803 "/>
<path fill="none" stroke="gray" d="M865,-475.803C865,-469.803 871,-463.803 877,-463.803"/>
<text text-anchor="middle" x="920" y="-607.903" font-family="Times Roman,serif" font-size="11.00" fill="gray">Order</text>
</g>
<g id="graph30" class="cluster"><title>cluster_Grocom\Order\Entity</title>
<polyline fill="none" stroke="gray" points="885,-517.803 955,-517.803 "/>
<path fill="none" stroke="gray" d="M955,-517.803C961,-517.803 967,-523.803 967,-529.803"/>
<polyline fill="none" stroke="gray" points="967,-529.803 967,-579.803 "/>
<path fill="none" stroke="gray" d="M967,-579.803C967,-585.803 961,-591.803 955,-591.803"/>
<polyline fill="none" stroke="gray" points="955,-591.803 885,-591.803 "/>
<path fill="none" stroke="gray" d="M885,-591.803C879,-591.803 873,-585.803 873,-579.803"/>
<polyline fill="none" stroke="gray" points="873,-579.803 873,-529.803 "/>
<path fill="none" stroke="gray" d="M873,-529.803C873,-523.803 879,-517.803 885,-517.803"/>
<text text-anchor="middle" x="920" y="-577.903" font-family="Times Roman,serif" font-size="11.00" fill="gray">Entity</text>
</g>
<g id="graph32" class="cluster"><title>cluster_Grocom\Product</title>
<polyline fill="none" stroke="gray" points="870,-629.803 970,-629.803 "/>
<path fill="none" stroke="gray" d="M970,-629.803C976,-629.803 982,-635.803 982,-641.803"/>
<polyline fill="none" stroke="gray" points="982,-641.803 982,-829.803 "/>
<path fill="none" stroke="gray" d="M982,-829.803C982,-835.803 976,-841.803 970,-841.803"/>
<polyline fill="none" stroke="gray" points="970,-841.803 870,-841.803 "/>
<path fill="none" stroke="gray" d="M870,-841.803C864,-841.803 858,-835.803 858,-829.803"/>
<polyline fill="none" stroke="gray" points="858,-829.803 858,-641.803 "/>
<path fill="none" stroke="gray" d="M858,-641.803C858,-635.803 864,-629.803 870,-629.803"/>
<text text-anchor="middle" x="920" y="-827.903" font-family="Times Roman,serif" font-size="11.00" fill="gray">Product</text>
</g>
<g id="graph33" class="cluster"><title>cluster_Grocom\Product\Entity</title>
<polyline fill="none" stroke="gray" points="878,-683.803 962,-683.803 "/>
<path fill="none" stroke="gray" d="M962,-683.803C968,-683.803 974,-689.803 974,-695.803"/>
<polyline fill="none" stroke="gray" points="974,-695.803 974,-799.803 "/>
<path fill="none" stroke="gray" d="M974,-799.803C974,-805.803 968,-811.803 962,-811.803"/>
<polyline fill="none" stroke="gray" points="962,-811.803 878,-811.803 "/>
<path fill="none" stroke="gray" d="M878,-811.803C872,-811.803 866,-805.803 866,-799.803"/>
<polyline fill="none" stroke="gray" points="866,-799.803 866,-695.803 "/>
<path fill="none" stroke="gray" d="M866,-695.803C866,-689.803 872,-683.803 878,-683.803"/>
<text text-anchor="middle" x="920" y="-797.903" font-family="Times Roman,serif" font-size="11.00" fill="gray">Entity</text>
</g>
<!-- \\Generic\\Admin\\Controller\\AdminController -->
<g id="node4" class="node"><title>\\Generic\\Admin\\Controller\\AdminController</title>
<a xlink:href="Generic.Admin.Controller.AdminController.html" xlink:title="AdminController" target="_parent">
<polygon fill="none" stroke="black" points="796,-1377.8 678,-1377.8 678,-1341.8 796,-1341.8 796,-1377.8"/>
<text text-anchor="middle" x="737" y="-1356.9" font-family="Courier,monospace" font-size="11.00">AdminController</text>
</a>
</g>
<!-- \\Symfony\\Bundle\\FrameworkBundle\\Controller\\Controller -->
<g id="node73" class="node"><title>\\Symfony\\Bundle\\FrameworkBundle\\Controller\\Controller</title>
<ellipse fill="none" stroke="black" cx="303" cy="-455.803" rx="290.121" ry="18.3848"/>
<text text-anchor="middle" x="303" y="-452.203" font-family="Times Roman,serif" font-size="14.00" fill="gray">\Symfony\Bundle\FrameworkBundle\Controller\Controller</text>
</g>
<!-- \\Generic\\Admin\\Controller\\AdminController&#45;&gt;\\Symfony\\Bundle\\FrameworkBundle\\Controller\\Controller -->
<g id="edge52" class="edge"><title>\\Generic\\Admin\\Controller\\AdminController&#45;&gt;\\Symfony\\Bundle\\FrameworkBundle\\Controller\\Controller</title>
<path fill="none" stroke="black" d="M677.744,-1348.13C672.02,-1345.38 666.631,-1341.99 662,-1337.8 388.73,-1090.88 319.205,-605.789 305.762,-484.037"/>
<polygon fill="none" stroke="black" points="309.235,-483.595 304.694,-474.022 302.275,-484.337 309.235,-483.595"/>
</g>
<!-- \\Generic\\Admin\\GenericAdmin -->
<g id="node5" class="node"><title>\\Generic\\Admin\\GenericAdmin</title>
<a xlink:href="Generic.Admin.GenericAdmin.html" xlink:title="GenericAdmin" target="_parent">
<polygon fill="none" stroke="black" points="786,-1323.8 688,-1323.8 688,-1287.8 786,-1287.8 786,-1323.8"/>
<text text-anchor="middle" x="737" y="-1302.9" font-family="Courier,monospace" font-size="11.00">GenericAdmin</text>
</a>
</g>
<!-- \\Symfony\\Component\\HttpKernel\\Bundle\\Bundle -->
<g id="node62" class="node"><title>\\Symfony\\Component\\HttpKernel\\Bundle\\Bundle</title>
<ellipse fill="none" stroke="black" cx="303" cy="-239.803" rx="246.78" ry="18.3848"/>
<text text-anchor="middle" x="303" y="-236.203" font-family="Times Roman,serif" font-size="14.00" fill="gray">\Symfony\Component\HttpKernel\Bundle\Bundle</text>
</g>
<!-- \\Generic\\Admin\\GenericAdmin&#45;&gt;\\Symfony\\Component\\HttpKernel\\Bundle\\Bundle -->
<g id="edge50" class="edge"><title>\\Generic\\Admin\\GenericAdmin&#45;&gt;\\Symfony\\Component\\HttpKernel\\Bundle\\Bundle</title>
<path fill="none" stroke="black" d="M703.373,-1287.79C687.949,-1277.64 671.103,-1263.43 662,-1245.8 612.016,-1148.99 681.811,-345.059 606,-266.803 550.224,-209.228 454.071,-210.435 385.028,-220.959"/>
<polygon fill="none" stroke="black" points="384.359,-217.522 375.046,-222.574 385.477,-224.432 384.359,-217.522"/>
</g>
<!-- \\Generic\\Comment\\Entity\\Thread -->
<g id="node9" class="node"><title>\\Generic\\Comment\\Entity\\Thread</title>
<a xlink:href="Generic.Comment.Entity.Thread.html" xlink:title="Thread" target="_parent">
<polygon fill="none" stroke="black" points="765,-1045.8 709,-1045.8 709,-1009.8 765,-1009.8 765,-1045.8"/>
<text text-anchor="middle" x="737" y="-1024.9" font-family="Courier,monospace" font-size="11.00">Thread</text>
</a>
</g>
<!-- \\FOS\\CommentBundle\\Entity\\Thread -->
<g id="node68" class="node"><title>\\FOS\\CommentBundle\\Entity\\Thread</title>
<ellipse fill="none" stroke="black" cx="303" cy="-401.803" rx="190.212" ry="18.3848"/>
<text text-anchor="middle" x="303" y="-398.203" font-family="Times Roman,serif" font-size="14.00" fill="gray">\FOS\CommentBundle\Entity\Thread</text>
</g>
<!-- \\Generic\\Comment\\Entity\\Thread&#45;&gt;\\FOS\\CommentBundle\\Entity\\Thread -->
<g id="edge46" class="edge"><title>\\Generic\\Comment\\Entity\\Thread&#45;&gt;\\FOS\\CommentBundle\\Entity\\Thread</title>
<path fill="none" stroke="black" d="M708.41,-1024.94C692.218,-1021.74 673.05,-1015 662,-1000.8 583.551,-900.017 696.704,-518.72 606,-428.803 549.071,-372.368 453.132,-373.363 384.455,-383.526"/>
<polygon fill="none" stroke="black" points="383.863,-380.076 374.528,-385.086 384.95,-386.991 383.863,-380.076"/>
</g>
<!-- \\Generic\\Comment\\Entity\\Comment -->
<g id="node10" class="node"><title>\\Generic\\Comment\\Entity\\Comment</title>
<a xlink:href="Generic.Comment.Entity.Comment.html" xlink:title="Comment" target="_parent">
<polygon fill="none" stroke="black" points="769,-991.803 705,-991.803 705,-955.803 769,-955.803 769,-991.803"/>
<text text-anchor="middle" x="737" y="-970.903" font-family="Courier,monospace" font-size="11.00">Comment</text>
</a>
</g>
<!-- \\FOS\\CommentBundle\\Entity\\Comment -->
<g id="node70" class="node"><title>\\FOS\\CommentBundle\\Entity\\Comment</title>
<ellipse fill="none" stroke="black" cx="303" cy="-347.803" rx="202.94" ry="18.3848"/>
<text text-anchor="middle" x="303" y="-344.203" font-family="Times Roman,serif" font-size="14.00" fill="gray">\FOS\CommentBundle\Entity\Comment</text>
</g>
<!-- \\Generic\\Comment\\Entity\\Comment&#45;&gt;\\FOS\\CommentBundle\\Entity\\Comment -->
<g id="edge48" class="edge"><title>\\Generic\\Comment\\Entity\\Comment&#45;&gt;\\FOS\\CommentBundle\\Entity\\Comment</title>
<path fill="none" stroke="black" d="M704.777,-972.396C689.507,-969.968 672.379,-964.35 662,-951.803 579.888,-852.539 697.451,-465.537 606,-374.803 549.273,-318.521 453.753,-319.338 385.114,-329.419"/>
<polygon fill="none" stroke="black" points="384.531,-325.967 375.19,-330.967 385.61,-332.883 384.531,-325.967"/>
</g>
<!-- \\FOS\\CommentBundle\\Model\\SignedCommentInterface -->
<g id="node91" class="node"><title>\\FOS\\CommentBundle\\Model\\SignedCommentInterface</title>
<ellipse fill="none" stroke="black" cx="303" cy="-293.803" rx="290.121" ry="18.3848"/>
<text text-anchor="middle" x="303" y="-290.203" font-family="Times Roman,serif" font-size="14.00" fill="gray">\\FOS\\CommentBundle\\Model\\SignedCommentInterface</text>
</g>
<!-- \\Generic\\Comment\\Entity\\Comment&#45;&gt;\\FOS\\CommentBundle\\Model\\SignedCommentInterface -->
<g id="edge80" class="edge"><title>\\Generic\\Comment\\Entity\\Comment&#45;&gt;\\FOS\\CommentBundle\\Model\\SignedCommentInterface</title>
<path fill="none" stroke="black" stroke-dasharray="1,5" d="M704.733,-972.433C689.452,-970.014 672.327,-964.393 662,-951.803 572.72,-842.963 705.524,-420.363 606,-320.803 550.306,-265.089 456.644,-265.134 388.168,-274.876"/>
<polygon fill="none" stroke="black" points="387.619,-271.419 378.256,-276.378 388.667,-278.34 387.619,-271.419"/>
</g>
<!-- \\Generic\\Comment\\GenericComment -->
<g id="node11" class="node"><title>\\Generic\\Comment\\GenericComment</title>
<a xlink:href="Generic.Comment.GenericComment.html" xlink:title="GenericComment" target="_parent">
<polygon fill="none" stroke="black" points="792,-937.803 682,-937.803 682,-901.803 792,-901.803 792,-937.803"/>
<text text-anchor="middle" x="737" y="-916.903" font-family="Courier,monospace" font-size="11.00">GenericComment</text>
</a>
</g>
<!-- \\Generic\\Comment\\GenericComment&#45;&gt;\\Symfony\\Component\\HttpKernel\\Bundle\\Bundle -->
<g id="edge44" class="edge"><title>\\Generic\\Comment\\GenericComment&#45;&gt;\\Symfony\\Component\\HttpKernel\\Bundle\\Bundle</title>
<path fill="none" stroke="black" d="M716.189,-901.757C698.47,-885.045 674.031,-858.503 662,-829.803 613.394,-713.85 695.359,-355.249 606,-266.803 549.832,-211.209 455.799,-211.383 387.36,-221.123"/>
<polygon fill="none" stroke="black" points="386.818,-217.665 377.455,-222.624 387.867,-224.586 386.818,-217.665"/>
</g>
<!-- \\Generic\\EAV\\Entity\\Value\\DateValue -->
<g id="node16" class="node"><title>\\Generic\\EAV\\Entity\\Value\\DateValue</title>
<a xlink:href="Generic.EAV.Entity.Value.DateValue.html" xlink:title="DateValue" target="_parent">
<polygon fill="none" stroke="black" points="775,-1759.8 699,-1759.8 699,-1723.8 775,-1723.8 775,-1759.8"/>
<text text-anchor="middle" x="737" y="-1738.9" font-family="Courier,monospace" font-size="11.00">DateValue</text>
</a>
</g>
<!-- \\Generic\\EAV\\Entity\\Value\\Value -->
<g id="node18" class="node"><title>\\Generic\\EAV\\Entity\\Value\\Value</title>
<a xlink:href="Generic.EAV.Entity.Value.Value.html" xlink:title="Value" target="_parent">
<polygon fill="none" stroke="black" points="330,-1840.8 276,-1840.8 276,-1804.8 330,-1804.8 330,-1840.8"/>
<text text-anchor="middle" x="303" y="-1819.9" font-family="Courier,monospace" font-size="11.00">Value</text>
</a>
</g>
<!-- \\Generic\\EAV\\Entity\\Value\\DateValue&#45;&gt;\\Generic\\EAV\\Entity\\Value\\Value -->
<g id="edge68" class="edge"><title>\\Generic\\EAV\\Entity\\Value\\DateValue&#45;&gt;\\Generic\\EAV\\Entity\\Value\\Value</title>
<path fill="none" stroke="black" d="M698.33,-1754.28C686.498,-1758.48 673.56,-1763.47 662,-1768.8 635.972,-1780.81 633.421,-1792.45 606,-1800.8 513.621,-1828.96 398.381,-1828.09 340.242,-1825.32"/>
<polygon fill="none" stroke="black" points="340.239,-1821.81 330.069,-1824.78 339.872,-1828.8 340.239,-1821.81"/>
</g>
<!-- \\Generic\\EAV\\Entity\\Value\\BooleanValue -->
<g id="node17" class="node"><title>\\Generic\\EAV\\Entity\\Value\\BooleanValue</title>
<a xlink:href="Generic.EAV.Entity.Value.BooleanValue.html" xlink:title="BooleanValue" target="_parent">
<polygon fill="none" stroke="black" points="786,-1705.8 688,-1705.8 688,-1669.8 786,-1669.8 786,-1705.8"/>
<text text-anchor="middle" x="737" y="-1684.9" font-family="Courier,monospace" font-size="11.00">BooleanValue</text>
</a>
</g>
<!-- \\Generic\\EAV\\Entity\\Value\\BooleanValue&#45;&gt;\\Generic\\EAV\\Entity\\Value\\Value -->
<g id="edge70" class="edge"><title>\\Generic\\EAV\\Entity\\Value\\BooleanValue&#45;&gt;\\Generic\\EAV\\Entity\\Value\\Value</title>
<path fill="none" stroke="black" d="M687.785,-1700.33C678.645,-1704.05 669.596,-1708.79 662,-1714.8 626.237,-1743.11 645.283,-1777.63 606,-1800.8 521.795,-1850.49 400.666,-1839.75 340.237,-1830.05"/>
<polygon fill="none" stroke="black" points="340.473,-1826.54 330.03,-1828.33 339.308,-1833.44 340.473,-1826.54"/>
</g>
<!-- \\Generic\\EAV\\Entity\\Value\\TextValue -->
<g id="node19" class="node"><title>\\Generic\\EAV\\Entity\\Value\\TextValue</title>
<a xlink:href="Generic.EAV.Entity.Value.TextValue.html" xlink:title="TextValue" target="_parent">
<polygon fill="none" stroke="black" points="775,-1975.8 699,-1975.8 699,-1939.8 775,-1939.8 775,-1975.8"/>
<text text-anchor="middle" x="737" y="-1954.9" font-family="Courier,monospace" font-size="11.00">TextValue</text>
</a>
</g>
<!-- \\Generic\\EAV\\Entity\\Value\\TextValue&#45;&gt;\\Generic\\EAV\\Entity\\Value\\Value -->
<g id="edge72" class="edge"><title>\\Generic\\EAV\\Entity\\Value\\TextValue&#45;&gt;\\Generic\\EAV\\Entity\\Value\\Value</title>
<path fill="none" stroke="black" d="M698.485,-1945.82C615.625,-1920.05 421.363,-1859.62 339.938,-1834.29"/>
<polygon fill="none" stroke="black" points="340.715,-1830.87 330.127,-1831.24 338.636,-1837.55 340.715,-1830.87"/>
</g>
<!-- \\Generic\\EAV\\Entity\\Value\\StringValue -->
<g id="node20" class="node"><title>\\Generic\\EAV\\Entity\\Value\\StringValue</title>
<a xlink:href="Generic.EAV.Entity.Value.StringValue.html" xlink:title="StringValue" target="_parent">
<polygon fill="none" stroke="black" points="782,-1921.8 692,-1921.8 692,-1885.8 782,-1885.8 782,-1921.8"/>
<text text-anchor="middle" x="737" y="-1900.9" font-family="Courier,monospace" font-size="11.00">StringValue</text>
</a>
</g>
<!-- \\Generic\\EAV\\Entity\\Value\\StringValue&#45;&gt;\\Generic\\EAV\\Entity\\Value\\Value -->
<g id="edge74" class="edge"><title>\\Generic\\EAV\\Entity\\Value\\StringValue&#45;&gt;\\Generic\\EAV\\Entity\\Value\\Value</title>
<path fill="none" stroke="black" d="M691.375,-1895.29C605.042,-1879.18 419.35,-1844.52 340.088,-1829.73"/>
<polygon fill="none" stroke="black" points="340.546,-1826.25 330.074,-1827.86 339.262,-1833.13 340.546,-1826.25"/>
</g>
<!-- \\Generic\\EAV\\Entity\\Value\\IntegerValue -->
<g id="node21" class="node"><title>\\Generic\\EAV\\Entity\\Value\\IntegerValue</title>
<a xlink:href="Generic.EAV.Entity.Value.IntegerValue.html" xlink:title="IntegerValue" target="_parent">
<polygon fill="none" stroke="black" points="786,-1867.8 688,-1867.8 688,-1831.8 786,-1831.8 786,-1867.8"/>
<text text-anchor="middle" x="737" y="-1846.9" font-family="Courier,monospace" font-size="11.00">IntegerValue</text>
</a>
</g>
<!-- \\Generic\\EAV\\Entity\\Value\\IntegerValue&#45;&gt;\\Generic\\EAV\\Entity\\Value\\Value -->
<g id="edge76" class="edge"><title>\\Generic\\EAV\\Entity\\Value\\IntegerValue&#45;&gt;\\Generic\\EAV\\Entity\\Value\\Value</title>
<path fill="none" stroke="black" d="M687.637,-1846.73C599.897,-1841.27 418.667,-1830 340.374,-1825.13"/>
<polygon fill="none" stroke="black" points="340.228,-1821.61 330.03,-1824.48 339.793,-1828.6 340.228,-1821.61"/>
</g>
<!-- \\Generic\\EAV\\Entity\\Value\\FloatValue -->
<g id="node22" class="node"><title>\\Generic\\EAV\\Entity\\Value\\FloatValue</title>
<a xlink:href="Generic.EAV.Entity.Value.FloatValue.html" xlink:title="FloatValue" target="_parent">
<polygon fill="none" stroke="black" points="779,-1813.8 695,-1813.8 695,-1777.8 779,-1777.8 779,-1813.8"/>
<text text-anchor="middle" x="737" y="-1792.9" font-family="Courier,monospace" font-size="11.00">FloatValue</text>
</a>
</g>
<!-- \\Generic\\EAV\\Entity\\Value\\FloatValue&#45;&gt;\\Generic\\EAV\\Entity\\Value\\Value -->
<g id="edge78" class="edge"><title>\\Generic\\EAV\\Entity\\Value\\FloatValue&#45;&gt;\\Generic\\EAV\\Entity\\Value\\Value</title>
<path fill="none" stroke="black" d="M694.992,-1798.42C610.401,-1803.68 420.76,-1815.48 340.268,-1820.48"/>
<polygon fill="none" stroke="black" points="339.869,-1817 330.106,-1821.12 340.304,-1823.99 339.869,-1817"/>
</g>
<!-- \\Generic\\EAV\\Entity\\Instance -->
<g id="node23" class="node"><title>\\Generic\\EAV\\Entity\\Instance</title>
<a xlink:href="Generic.EAV.Entity.Instance.html" xlink:title="Instance" target="_parent">
<polygon fill="none" stroke="black" points="772,-1651.8 702,-1651.8 702,-1615.8 772,-1615.8 772,-1651.8"/>
<text text-anchor="middle" x="737" y="-1630.9" font-family="Courier,monospace" font-size="11.00">Instance</text>
</a>
</g>
<!-- \\Generic\\EAV\\Entity\\Type -->
<g id="node24" class="node"><title>\\Generic\\EAV\\Entity\\Type</title>
<a xlink:href="Generic.EAV.Entity.Type.html" xlink:title="Type" target="_parent">
<polygon fill="none" stroke="black" points="764,-1597.8 710,-1597.8 710,-1561.8 764,-1561.8 764,-1597.8"/>
<text text-anchor="middle" x="737" y="-1576.9" font-family="Courier,monospace" font-size="11.00">Type</text>
</a>
</g>
<!-- \\Generic\\EAV\\Entity\\Attribute -->
<g id="node25" class="node"><title>\\Generic\\EAV\\Entity\\Attribute</title>
<a xlink:href="Generic.EAV.Entity.Attribute.html" xlink:title="Attribute" target="_parent">
<polygon fill="none" stroke="black" points="775,-1543.8 699,-1543.8 699,-1507.8 775,-1507.8 775,-1543.8"/>
<text text-anchor="middle" x="737" y="-1522.9" font-family="Courier,monospace" font-size="11.00">Attribute</text>
</a>
</g>
<!-- \\Generic\\EAV\\GenericEAV -->
<g id="node27" class="node"><title>\\Generic\\EAV\\GenericEAV</title>
<a xlink:href="Generic.EAV.GenericEAV.html" xlink:title="GenericEAV" target="_parent">
<polygon fill="none" stroke="black" points="779,-1489.8 695,-1489.8 695,-1453.8 779,-1453.8 779,-1489.8"/>
<text text-anchor="middle" x="737" y="-1468.9" font-family="Courier,monospace" font-size="11.00">GenericEAV</text>
</a>
</g>
<!-- \\Generic\\EAV\\GenericEAV&#45;&gt;\\Symfony\\Component\\HttpKernel\\Bundle\\Bundle -->
<g id="edge66" class="edge"><title>\\Generic\\EAV\\GenericEAV&#45;&gt;\\Symfony\\Component\\HttpKernel\\Bundle\\Bundle</title>
<path fill="none" stroke="black" d="M702.92,-1453.57C687.589,-1443.44 670.954,-1429.32 662,-1411.8 604.034,-1298.38 694.248,-358.654 606,-266.803 550.375,-208.907 453.963,-210.252 384.821,-220.895"/>
<polygon fill="none" stroke="black" points="384.131,-217.461 374.826,-222.527 385.259,-224.37 384.131,-217.461"/>
</g>
<!-- \\Generic\\Site\\Controller\\SiteController -->
<g id="node31" class="node"><title>\\Generic\\Site\\Controller\\SiteController</title>
<a xlink:href="Generic.Site.Controller.SiteController.html" xlink:title="SiteController" target="_parent">
<polygon fill="none" stroke="black" points="792,-1211.8 682,-1211.8 682,-1175.8 792,-1175.8 792,-1211.8"/>
<text text-anchor="middle" x="737" y="-1190.9" font-family="Courier,monospace" font-size="11.00">SiteController</text>
</a>
</g>
<!-- \\Generic\\Site\\Controller\\SiteController&#45;&gt;\\Symfony\\Bundle\\FrameworkBundle\\Controller\\Controller -->
<g id="edge64" class="edge"><title>\\Generic\\Site\\Controller\\SiteController&#45;&gt;\\Symfony\\Bundle\\FrameworkBundle\\Controller\\Controller</title>
<path fill="none" stroke="black" d="M681.493,-1183.26C674.458,-1180.33 667.729,-1176.59 662,-1171.8 428.258,-976.645 331.72,-591.469 308.687,-484.149"/>
<polygon fill="none" stroke="black" points="312.055,-483.159 306.571,-474.094 305.205,-484.6 312.055,-483.159"/>
</g>
<!-- \\Generic\\Site\\GenericSite -->
<g id="node32" class="node"><title>\\Generic\\Site\\GenericSite</title>
<a xlink:href="Generic.Site.GenericSite.html" xlink:title="GenericSite" target="_parent">
<polygon fill="none" stroke="black" points="782,-1157.8 692,-1157.8 692,-1121.8 782,-1121.8 782,-1157.8"/>
<text text-anchor="middle" x="737" y="-1136.9" font-family="Courier,monospace" font-size="11.00">GenericSite</text>
</a>
</g>
<!-- \\Generic\\Site\\GenericSite&#45;&gt;\\Symfony\\Component\\HttpKernel\\Bundle\\Bundle -->
<g id="edge62" class="edge"><title>\\Generic\\Site\\GenericSite&#45;&gt;\\Symfony\\Component\\HttpKernel\\Bundle\\Bundle</title>
<path fill="none" stroke="black" d="M703.461,-1121.75C688.059,-1111.58 671.206,-1097.38 662,-1079.8 577.987,-919.375 732.76,-396.137 606,-266.803 550.154,-209.823 454.703,-210.69 385.838,-220.974"/>
<polygon fill="none" stroke="black" points="385.206,-217.531 375.878,-222.554 386.303,-224.444 385.206,-217.531"/>
</g>
<!-- \\Generic\\User\\DataFixtures\\ORM\\LoadUserData -->
<g id="node36" class="node"><title>\\Generic\\User\\DataFixtures\\ORM\\LoadUserData</title>
<a xlink:href="Generic.User.DataFixtures.ORM.LoadUserData.html" xlink:title="LoadUserData" target="_parent">
<polygon fill="none" stroke="black" points="786,-795.803 688,-795.803 688,-759.803 786,-759.803 786,-795.803"/>
<text text-anchor="middle" x="737" y="-774.903" font-family="Courier,monospace" font-size="11.00">LoadUserData</text>
</a>
</g>
<!-- \\Doctrine\\Common\\DataFixtures\\AbstractFixture -->
<g id="node76" class="node"><title>\\Doctrine\\Common\\DataFixtures\\AbstractFixture</title>
<ellipse fill="none" stroke="black" cx="303" cy="-131.803" rx="246.987" ry="18.3848"/>
<text text-anchor="middle" x="303" y="-128.203" font-family="Times Roman,serif" font-size="14.00" fill="gray">\Doctrine\Common\DataFixtures\AbstractFixture</text>
</g>
<!-- \\Generic\\User\\DataFixtures\\ORM\\LoadUserData&#45;&gt;\\Doctrine\\Common\\DataFixtures\\AbstractFixture -->
<g id="edge56" class="edge"><title>\\Generic\\User\\DataFixtures\\ORM\\LoadUserData&#45;&gt;\\Doctrine\\Common\\DataFixtures\\AbstractFixture</title>
<path fill="none" stroke="black" d="M687.955,-761.875C677.889,-756.408 668.419,-749.207 662,-739.803 588.872,-632.673 698.049,-250.19 606,-158.803 549.917,-103.123 455.87,-103.311 387.404,-113.079"/>
<polygon fill="none" stroke="black" points="386.856,-109.622 377.495,-114.584 387.907,-116.542 386.856,-109.622"/>
</g>
<!-- \\Doctrine\\Common\\DataFixtures\\OrderedFixtureInterface -->
<g id="node93" class="node"><title>\\Doctrine\\Common\\DataFixtures\\OrderedFixtureInterface</title>
<ellipse fill="none" stroke="black" cx="303" cy="-185.803" rx="302.141" ry="18.3848"/>
<text text-anchor="middle" x="303" y="-182.203" font-family="Times Roman,serif" font-size="14.00" fill="gray">\\Doctrine\\Common\\DataFixtures\\OrderedFixtureInterface</text>
</g>
<!-- \\Generic\\User\\DataFixtures\\ORM\\LoadUserData&#45;&gt;\\Doctrine\\Common\\DataFixtures\\OrderedFixtureInterface -->
<g id="edge82" class="edge"><title>\\Generic\\User\\DataFixtures\\ORM\\LoadUserData&#45;&gt;\\Doctrine\\Common\\DataFixtures\\OrderedFixtureInterface</title>
<path fill="none" stroke="black" stroke-dasharray="1,5" d="M687.634,-761.618C677.71,-756.179 668.382,-749.055 662,-739.803 595.128,-642.86 689.981,-295.369 606,-212.803 550.388,-158.128 458.114,-157.546 389.978,-166.844"/>
<polygon fill="none" stroke="black" points="389.073,-163.439 379.684,-168.348 390.085,-170.365 389.073,-163.439"/>
</g>
<!-- \\Generic\\User\\Entity\\User -->
<g id="node39" class="node"><title>\\Generic\\User\\Entity\\User</title>
<a xlink:href="Generic.User.Entity.User.html" xlink:title="User" target="_parent">
<polygon fill="none" stroke="black" points="764,-705.803 710,-705.803 710,-669.803 764,-669.803 764,-705.803"/>
<text text-anchor="middle" x="737" y="-684.903" font-family="Courier,monospace" font-size="11.00">User</text>
</a>
</g>
<!-- \\FOS\\UserBundle\\Entity\\User -->
<g id="node78" class="node"><title>\\FOS\\UserBundle\\Entity\\User</title>
<ellipse fill="none" stroke="black" cx="303" cy="-77.8031" rx="152.234" ry="18.3848"/>
<text text-anchor="middle" x="303" y="-74.2031" font-family="Times Roman,serif" font-size="14.00" fill="gray">\FOS\UserBundle\Entity\User</text>
</g>
<!-- \\Generic\\User\\Entity\\User&#45;&gt;\\FOS\\UserBundle\\Entity\\User -->
<g id="edge58" class="edge"><title>\\Generic\\User\\Entity\\User&#45;&gt;\\FOS\\UserBundle\\Entity\\User</title>
<path fill="none" stroke="black" d="M709.824,-673.492C693.084,-663.15 672.819,-647.544 662,-627.803 605.822,-525.302 689.383,-186.716 606,-104.803 548.007,-47.8331 450.206,-49.6121 381.437,-60.0873"/>
<polygon fill="none" stroke="black" points="380.824,-56.6409 371.509,-61.6899 381.939,-63.5514 380.824,-56.6409"/>
</g>
<!-- \\Generic\\User\\Tests\\Entity\\UserTest -->
<g id="node42" class="node"><title>\\Generic\\User\\Tests\\Entity\\UserTest</title>
<a xlink:href="Generic.User.Tests.Entity.UserTest.html" xlink:title="UserTest" target="_parent">
<polygon fill="none" stroke="black" points="772,-593.803 702,-593.803 702,-557.803 772,-557.803 772,-593.803"/>
<text text-anchor="middle" x="737" y="-572.903" font-family="Courier,monospace" font-size="11.00">UserTest</text>
</a>
</g>
<!-- \\PHPUnit_Framework_TestCase -->
<g id="node80" class="node"><title>\\PHPUnit_Framework_TestCase</title>
<ellipse fill="none" stroke="black" cx="303" cy="-23.8031" rx="164.756" ry="18.3848"/>
<text text-anchor="middle" x="303" y="-20.2031" font-family="Times Roman,serif" font-size="14.00" fill="gray">\PHPUnit_Framework_TestCase</text>
</g>
<!-- \\Generic\\User\\Tests\\Entity\\UserTest&#45;&gt;\\PHPUnit_Framework_TestCase -->
<g id="edge60" class="edge"><title>\\Generic\\User\\Tests\\Entity\\UserTest&#45;&gt;\\PHPUnit_Framework_TestCase</title>
<path fill="none" stroke="black" d="M701.392,-573.729C687.068,-571.009 671.682,-565.341 662,-553.803 589.703,-467.65 686.397,-129.451 606,-50.8031 548.337,5.60477 451.622,4.31418 382.981,-5.90478"/>
<polygon fill="none" stroke="black" points="382.396,-2.45362 373.065,-7.47148 383.489,-9.36785 382.396,-2.45362"/>
</g>
<!-- \\Generic\\User\\GenericUser -->
<g id="node43" class="node"><title>\\Generic\\User\\GenericUser</title>
<a xlink:href="Generic.User.GenericUser.html" xlink:title="GenericUser" target="_parent">
<polygon fill="none" stroke="black" points="782,-533.803 692,-533.803 692,-497.803 782,-497.803 782,-533.803"/>
<text text-anchor="middle" x="737" y="-512.903" font-family="Courier,monospace" font-size="11.00">GenericUser</text>
</a>
</g>
<!-- \\Generic\\User\\GenericUser&#45;&gt;\\Symfony\\Component\\HttpKernel\\Bundle\\Bundle -->
<g id="edge54" class="edge"><title>\\Generic\\User\\GenericUser&#45;&gt;\\Symfony\\Component\\HttpKernel\\Bundle\\Bundle</title>
<path fill="none" stroke="black" d="M691.211,-510.387C680.411,-507.111 669.789,-501.938 662,-493.803 590.136,-418.746 684.878,-334.451 606,-266.803 549.852,-218.649 464.445,-215.104 398.602,-221.77"/>
<polygon fill="none" stroke="black" points="398.179,-218.296 388.623,-222.873 398.947,-225.253 398.179,-218.296"/>
</g>
<!-- \\Grocom\\Order\\Entity\\OrderType -->
<g id="node52" class="node"><title>\\Grocom\\Order\\Entity\\OrderType</title>
<a xlink:href="Grocom.Order.Entity.OrderType.html" xlink:title="OrderType" target="_parent">
<polygon fill="none" stroke="black" points="958,-561.803 882,-561.803 882,-525.803 958,-525.803 958,-561.803"/>
<text text-anchor="middle" x="920" y="-540.903" font-family="Courier,monospace" font-size="11.00">OrderType</text>
</a>
</g>
<!-- \\Grocom\\Order\\Entity\\OrderType&#45;&gt;\\Generic\\EAV\\Entity\\Type -->
<g id="edge34" class="edge"><title>\\Grocom\\Order\\Entity\\OrderType&#45;&gt;\\Generic\\EAV\\Entity\\Type</title>
<path fill="none" stroke="black" d="M897.801,-562.096C881.249,-577.232 859.869,-600.319 850,-625.803 812.784,-721.902 881.9,-1470.41 820,-1552.8 809.297,-1567.05 790.914,-1573.9 774.164,-1577.15"/>
<polygon fill="none" stroke="black" points="773.366,-1573.74 764.03,-1578.74 774.451,-1580.65 773.366,-1573.74"/>
</g>
<!-- \\Grocom\\Order\\GrocomOrder -->
<g id="node53" class="node"><title>\\Grocom\\Order\\GrocomOrder</title>
<a xlink:href="Grocom.Order.GrocomOrder.html" xlink:title="GrocomOrder" target="_parent">
<polygon fill="none" stroke="black" points="965,-507.803 875,-507.803 875,-471.803 965,-471.803 965,-507.803"/>
<text text-anchor="middle" x="920" y="-486.903" font-family="Courier,monospace" font-size="11.00">GrocomOrder</text>
</a>
</g>
<!-- \\Grocom\\Order\\GrocomOrder&#45;&gt;\\Symfony\\Component\\HttpKernel\\Bundle\\Bundle -->
<g id="edge36" class="edge"><title>\\Grocom\\Order\\GrocomOrder&#45;&gt;\\Symfony\\Component\\HttpKernel\\Bundle\\Bundle</title>
<path fill="none" stroke="black" d="M874.147,-487.029C827.803,-483.568 759.865,-476.498 737,-463.803"/>
<path fill="none" stroke="black" d="M737,-463.803C645.072,-412.764 696.378,-320.54 606,-266.803 591.011,-257.891 574.848,-250.829 558.062,-245.287"/>
<polygon fill="none" stroke="black" points="558.7,-241.82 548.112,-242.198 556.624,-248.506 558.7,-241.82"/>
</g>
<!-- \\Grocom\\Product\\Entity\\Product -->
<g id="node57" class="node"><title>\\Grocom\\Product\\Entity\\Product</title>
<a xlink:href="Grocom.Product.Entity.Product.html" xlink:title="Product" target="_parent">
<polygon fill="none" stroke="black" points="952,-781.803 888,-781.803 888,-745.803 952,-745.803 952,-781.803"/>
<text text-anchor="middle" x="920" y="-760.903" font-family="Courier,monospace" font-size="11.00">Product</text>
</a>
</g>
<!-- \\Grocom\\Product\\Entity\\Product&#45;&gt;\\Generic\\EAV\\Entity\\Instance -->
<g id="edge40" class="edge"><title>\\Grocom\\Product\\Entity\\Product&#45;&gt;\\Generic\\EAV\\Entity\\Instance</title>
<path fill="none" stroke="black" d="M919,-782.136C912.46,-899.311 874.342,-1540.58 820,-1606.8 810.718,-1618.11 796.629,-1624.73 782.68,-1628.59"/>
<polygon fill="none" stroke="black" points="781.562,-1625.26 772.619,-1630.94 783.153,-1632.08 781.562,-1625.26"/>
</g>
<!-- \\Grocom\\Product\\Entity\\ProductType -->
<g id="node58" class="node"><title>\\Grocom\\Product\\Entity\\ProductType</title>
<a xlink:href="Grocom.Product.Entity.ProductType.html" xlink:title="ProductType" target="_parent">
<polygon fill="none" stroke="black" points="965,-727.803 875,-727.803 875,-691.803 965,-691.803 965,-727.803"/>
<text text-anchor="middle" x="920" y="-706.903" font-family="Courier,monospace" font-size="11.00">ProductType</text>
</a>
</g>
<!-- \\Grocom\\Product\\Entity\\ProductType&#45;&gt;\\Generic\\EAV\\Entity\\Type -->
<g id="edge42" class="edge"><title>\\Grocom\\Product\\Entity\\ProductType&#45;&gt;\\Generic\\EAV\\Entity\\Type</title>
<path fill="none" stroke="black" d="M874.455,-718.663C864.93,-722.649 855.976,-728.426 850,-736.803 797.306,-810.66 874.656,-1480.39 820,-1552.8 809.266,-1567.03 790.88,-1573.88 774.137,-1577.13"/>
<polygon fill="none" stroke="black" points="773.342,-1573.71 764.007,-1578.73 774.43,-1580.63 773.342,-1573.71"/>
</g>
<!-- \\Grocom\\Product\\GrocomProduct -->
<g id="node59" class="node"><title>\\Grocom\\Product\\GrocomProduct</title>
<a xlink:href="Grocom.Product.GrocomProduct.html" xlink:title="GrocomProduct" target="_parent">
<polygon fill="none" stroke="black" points="972,-673.803 868,-673.803 868,-637.803 972,-637.803 972,-673.803"/>
<text text-anchor="middle" x="920" y="-652.903" font-family="Courier,monospace" font-size="11.00">GrocomProduct</text>
</a>
</g>
<!-- \\Grocom\\Product\\GrocomProduct&#45;&gt;\\Symfony\\Component\\HttpKernel\\Bundle\\Bundle -->
<g id="edge38" class="edge"><title>\\Grocom\\Product\\GrocomProduct&#45;&gt;\\Symfony\\Component\\HttpKernel\\Bundle\\Bundle</title>
<path fill="none" stroke="black" d="M891.825,-637.774C877.369,-627.176 860.614,-612.575 850,-595.803 822.902,-552.983 855.96,-521.507 820,-485.803 792.919,-458.915 770.365,-482.328 737,-463.803"/>
</g>
</g>
</svg>
